# xmcd
#
# Track frame offsets: 
#        150
#        21045
#        51489
#
# Disc length: 1090 seconds
#
# Revision: 2
# Processed by: cddbd v1.5.1PL0 Copyright (c) Steve Scherf et al.
# Submitted via: ExactAudioCopy v0.95a5
#
DISCID=20044003
DTITLE=Various Artist - Kod Amidze Idriza
DYEAR=2004
DGENRE=Folk
TTITLE0=Malo je malo dana - Halid Beslic
TTITLE1=Malo je malo dana - Instrumental
TTITLE2=Malo je malo dana - Movie Artist
EXTD=YEAR: 1990 ID3G: 14
EXTT0=
EXTT1=
EXTT2=
PLAYORDER=
